G04 #@! TF.FileFunction,Legend,Top*
%FSLAX46Y46*%
G04 Gerber Fmt 4.6, Leading zero omitted, Abs format (unit mm)*
G04 Created by KiCad (PCBNEW 4.0.7) date 11/08/17 15:50:33*
%MOMM*%
%LPD*%
G01*
G04 APERTURE LIST*
%ADD10C,0.100000*%
%ADD11C,0.120000*%
%ADD12C,0.150000*%
G04 APERTURE END LIST*
D10*
D11*
X172760000Y-97730000D02*
X172760000Y-102850000D01*
X170140000Y-97730000D02*
X170140000Y-102850000D01*
X172760000Y-97730000D02*
X172446000Y-97730000D01*
X170454000Y-97730000D02*
X170140000Y-97730000D01*
X172760000Y-102850000D02*
X172446000Y-102850000D01*
X170454000Y-102850000D02*
X170140000Y-102850000D01*
X194270000Y-104200000D02*
X194270000Y-99080000D01*
X196890000Y-104200000D02*
X196890000Y-99080000D01*
X194270000Y-104200000D02*
X194584000Y-104200000D01*
X196576000Y-104200000D02*
X196890000Y-104200000D01*
X194270000Y-99080000D02*
X194584000Y-99080000D01*
X196576000Y-99080000D02*
X196890000Y-99080000D01*
X184210000Y-109260000D02*
X179090000Y-109260000D01*
X184210000Y-106640000D02*
X179090000Y-106640000D01*
X184210000Y-109260000D02*
X184210000Y-108946000D01*
X184210000Y-106954000D02*
X184210000Y-106640000D01*
X179090000Y-109260000D02*
X179090000Y-108946000D01*
X179090000Y-106954000D02*
X179090000Y-106640000D01*
D12*
X170010000Y-130135000D02*
X170460000Y-130135000D01*
X171860000Y-127635000D02*
G75*
G03X171860000Y-127635000I-2950000J0D01*
G01*
X167810000Y-130135000D02*
X167360000Y-130135000D01*
D11*
X163770000Y-102930000D02*
X166430000Y-102930000D01*
X163770000Y-100330000D02*
X163770000Y-102930000D01*
X166430000Y-100330000D02*
X166430000Y-102930000D01*
X163770000Y-100330000D02*
X166430000Y-100330000D01*
X163770000Y-99060000D02*
X163770000Y-97730000D01*
X163770000Y-97730000D02*
X165100000Y-97730000D01*
X191710000Y-128330000D02*
X196910000Y-128330000D01*
X191710000Y-123190000D02*
X191710000Y-128330000D01*
X196910000Y-120590000D02*
X196910000Y-128330000D01*
X191710000Y-123190000D02*
X194310000Y-123190000D01*
X194310000Y-123190000D02*
X194310000Y-120590000D01*
X194310000Y-120590000D02*
X196910000Y-120590000D01*
X191710000Y-121920000D02*
X191710000Y-120590000D01*
X191710000Y-120590000D02*
X193040000Y-120590000D01*
X165700000Y-119670000D02*
X165700000Y-119340000D01*
X165700000Y-119340000D02*
X172120000Y-119340000D01*
X172120000Y-119340000D02*
X172120000Y-119670000D01*
X165700000Y-121630000D02*
X165700000Y-121960000D01*
X165700000Y-121960000D02*
X172120000Y-121960000D01*
X172120000Y-121960000D02*
X172120000Y-121630000D01*
X165700000Y-114590000D02*
X165700000Y-114260000D01*
X165700000Y-114260000D02*
X172120000Y-114260000D01*
X172120000Y-114260000D02*
X172120000Y-114590000D01*
X165700000Y-116550000D02*
X165700000Y-116880000D01*
X165700000Y-116880000D02*
X172120000Y-116880000D01*
X172120000Y-116880000D02*
X172120000Y-116550000D01*
X178400000Y-127290000D02*
X178400000Y-126960000D01*
X178400000Y-126960000D02*
X184820000Y-126960000D01*
X184820000Y-126960000D02*
X184820000Y-127290000D01*
X178400000Y-129250000D02*
X178400000Y-129580000D01*
X178400000Y-129580000D02*
X184820000Y-129580000D01*
X184820000Y-129580000D02*
X184820000Y-129250000D01*
X164430000Y-108240000D02*
X164430000Y-107910000D01*
X164430000Y-107910000D02*
X170850000Y-107910000D01*
X170850000Y-107910000D02*
X170850000Y-108240000D01*
X164430000Y-110200000D02*
X164430000Y-110530000D01*
X164430000Y-110530000D02*
X170850000Y-110530000D01*
X170850000Y-110530000D02*
X170850000Y-110200000D01*
X197120000Y-107530000D02*
X192620000Y-107530000D01*
X198370000Y-111530000D02*
X198370000Y-110030000D01*
X192620000Y-114030000D02*
X197120000Y-114030000D01*
X191370000Y-110030000D02*
X191370000Y-111530000D01*
X176490000Y-97710000D02*
X186730000Y-97710000D01*
X176490000Y-102351000D02*
X186730000Y-102351000D01*
X176490000Y-97710000D02*
X176490000Y-102351000D01*
X186730000Y-97710000D02*
X186730000Y-102351000D01*
X176490000Y-99220000D02*
X186730000Y-99220000D01*
X179760000Y-97710000D02*
X179760000Y-99220000D01*
X183461000Y-97710000D02*
X183461000Y-99220000D01*
X182610000Y-112970000D02*
G75*
G02X180610000Y-112970000I-1000000J0D01*
G01*
X180610000Y-112970000D02*
X178960000Y-112970000D01*
X178960000Y-112970000D02*
X178960000Y-123250000D01*
X178960000Y-123250000D02*
X184260000Y-123250000D01*
X184260000Y-123250000D02*
X184260000Y-112970000D01*
X184260000Y-112970000D02*
X182610000Y-112970000D01*
D12*
X174367143Y-100456666D02*
X174414762Y-100504285D01*
X174462381Y-100647142D01*
X174462381Y-100742380D01*
X174414762Y-100885238D01*
X174319524Y-100980476D01*
X174224286Y-101028095D01*
X174033810Y-101075714D01*
X173890952Y-101075714D01*
X173700476Y-101028095D01*
X173605238Y-100980476D01*
X173510000Y-100885238D01*
X173462381Y-100742380D01*
X173462381Y-100647142D01*
X173510000Y-100504285D01*
X173557619Y-100456666D01*
X174462381Y-99504285D02*
X174462381Y-100075714D01*
X174462381Y-99790000D02*
X173462381Y-99790000D01*
X173605238Y-99885238D01*
X173700476Y-99980476D01*
X173748095Y-100075714D01*
X193377143Y-101806666D02*
X193424762Y-101854285D01*
X193472381Y-101997142D01*
X193472381Y-102092380D01*
X193424762Y-102235238D01*
X193329524Y-102330476D01*
X193234286Y-102378095D01*
X193043810Y-102425714D01*
X192900952Y-102425714D01*
X192710476Y-102378095D01*
X192615238Y-102330476D01*
X192520000Y-102235238D01*
X192472381Y-102092380D01*
X192472381Y-101997142D01*
X192520000Y-101854285D01*
X192567619Y-101806666D01*
X192567619Y-101425714D02*
X192520000Y-101378095D01*
X192472381Y-101282857D01*
X192472381Y-101044761D01*
X192520000Y-100949523D01*
X192567619Y-100901904D01*
X192662857Y-100854285D01*
X192758095Y-100854285D01*
X192900952Y-100901904D01*
X193472381Y-101473333D01*
X193472381Y-100854285D01*
X181483334Y-110867143D02*
X181435715Y-110914762D01*
X181292858Y-110962381D01*
X181197620Y-110962381D01*
X181054762Y-110914762D01*
X180959524Y-110819524D01*
X180911905Y-110724286D01*
X180864286Y-110533810D01*
X180864286Y-110390952D01*
X180911905Y-110200476D01*
X180959524Y-110105238D01*
X181054762Y-110010000D01*
X181197620Y-109962381D01*
X181292858Y-109962381D01*
X181435715Y-110010000D01*
X181483334Y-110057619D01*
X181816667Y-109962381D02*
X182435715Y-109962381D01*
X182102381Y-110343333D01*
X182245239Y-110343333D01*
X182340477Y-110390952D01*
X182388096Y-110438571D01*
X182435715Y-110533810D01*
X182435715Y-110771905D01*
X182388096Y-110867143D01*
X182340477Y-110914762D01*
X182245239Y-110962381D01*
X181959524Y-110962381D01*
X181864286Y-110914762D01*
X181816667Y-110867143D01*
X168171905Y-132242381D02*
X168171905Y-131242381D01*
X168410000Y-131242381D01*
X168552858Y-131290000D01*
X168648096Y-131385238D01*
X168695715Y-131480476D01*
X168743334Y-131670952D01*
X168743334Y-131813810D01*
X168695715Y-132004286D01*
X168648096Y-132099524D01*
X168552858Y-132194762D01*
X168410000Y-132242381D01*
X168171905Y-132242381D01*
X169124286Y-131337619D02*
X169171905Y-131290000D01*
X169267143Y-131242381D01*
X169505239Y-131242381D01*
X169600477Y-131290000D01*
X169648096Y-131337619D01*
X169695715Y-131432857D01*
X169695715Y-131528095D01*
X169648096Y-131670952D01*
X169076667Y-132242381D01*
X169695715Y-132242381D01*
X164766667Y-96182381D02*
X164766667Y-96896667D01*
X164719047Y-97039524D01*
X164623809Y-97134762D01*
X164480952Y-97182381D01*
X164385714Y-97182381D01*
X165766667Y-97182381D02*
X165195238Y-97182381D01*
X165480952Y-97182381D02*
X165480952Y-96182381D01*
X165385714Y-96325238D01*
X165290476Y-96420476D01*
X165195238Y-96468095D01*
X193976667Y-119042381D02*
X193976667Y-119756667D01*
X193929047Y-119899524D01*
X193833809Y-119994762D01*
X193690952Y-120042381D01*
X193595714Y-120042381D01*
X194405238Y-119137619D02*
X194452857Y-119090000D01*
X194548095Y-119042381D01*
X194786191Y-119042381D01*
X194881429Y-119090000D01*
X194929048Y-119137619D01*
X194976667Y-119232857D01*
X194976667Y-119328095D01*
X194929048Y-119470952D01*
X194357619Y-120042381D01*
X194976667Y-120042381D01*
X168743334Y-118792381D02*
X168410000Y-118316190D01*
X168171905Y-118792381D02*
X168171905Y-117792381D01*
X168552858Y-117792381D01*
X168648096Y-117840000D01*
X168695715Y-117887619D01*
X168743334Y-117982857D01*
X168743334Y-118125714D01*
X168695715Y-118220952D01*
X168648096Y-118268571D01*
X168552858Y-118316190D01*
X168171905Y-118316190D01*
X169124286Y-117887619D02*
X169171905Y-117840000D01*
X169267143Y-117792381D01*
X169505239Y-117792381D01*
X169600477Y-117840000D01*
X169648096Y-117887619D01*
X169695715Y-117982857D01*
X169695715Y-118078095D01*
X169648096Y-118220952D01*
X169076667Y-118792381D01*
X169695715Y-118792381D01*
X168743334Y-113712381D02*
X168410000Y-113236190D01*
X168171905Y-113712381D02*
X168171905Y-112712381D01*
X168552858Y-112712381D01*
X168648096Y-112760000D01*
X168695715Y-112807619D01*
X168743334Y-112902857D01*
X168743334Y-113045714D01*
X168695715Y-113140952D01*
X168648096Y-113188571D01*
X168552858Y-113236190D01*
X168171905Y-113236190D01*
X169076667Y-112712381D02*
X169695715Y-112712381D01*
X169362381Y-113093333D01*
X169505239Y-113093333D01*
X169600477Y-113140952D01*
X169648096Y-113188571D01*
X169695715Y-113283810D01*
X169695715Y-113521905D01*
X169648096Y-113617143D01*
X169600477Y-113664762D01*
X169505239Y-113712381D01*
X169219524Y-113712381D01*
X169124286Y-113664762D01*
X169076667Y-113617143D01*
X181443334Y-126412381D02*
X181110000Y-125936190D01*
X180871905Y-126412381D02*
X180871905Y-125412381D01*
X181252858Y-125412381D01*
X181348096Y-125460000D01*
X181395715Y-125507619D01*
X181443334Y-125602857D01*
X181443334Y-125745714D01*
X181395715Y-125840952D01*
X181348096Y-125888571D01*
X181252858Y-125936190D01*
X180871905Y-125936190D01*
X182300477Y-125745714D02*
X182300477Y-126412381D01*
X182062381Y-125364762D02*
X181824286Y-126079048D01*
X182443334Y-126079048D01*
X167473334Y-107362381D02*
X167140000Y-106886190D01*
X166901905Y-107362381D02*
X166901905Y-106362381D01*
X167282858Y-106362381D01*
X167378096Y-106410000D01*
X167425715Y-106457619D01*
X167473334Y-106552857D01*
X167473334Y-106695714D01*
X167425715Y-106790952D01*
X167378096Y-106838571D01*
X167282858Y-106886190D01*
X166901905Y-106886190D01*
X168378096Y-106362381D02*
X167901905Y-106362381D01*
X167854286Y-106838571D01*
X167901905Y-106790952D01*
X167997143Y-106743333D01*
X168235239Y-106743333D01*
X168330477Y-106790952D01*
X168378096Y-106838571D01*
X168425715Y-106933810D01*
X168425715Y-107171905D01*
X168378096Y-107267143D01*
X168330477Y-107314762D01*
X168235239Y-107362381D01*
X167997143Y-107362381D01*
X167901905Y-107314762D01*
X167854286Y-107267143D01*
X193536667Y-115434762D02*
X193679524Y-115482381D01*
X193917620Y-115482381D01*
X194012858Y-115434762D01*
X194060477Y-115387143D01*
X194108096Y-115291905D01*
X194108096Y-115196667D01*
X194060477Y-115101429D01*
X194012858Y-115053810D01*
X193917620Y-115006190D01*
X193727143Y-114958571D01*
X193631905Y-114910952D01*
X193584286Y-114863333D01*
X193536667Y-114768095D01*
X193536667Y-114672857D01*
X193584286Y-114577619D01*
X193631905Y-114530000D01*
X193727143Y-114482381D01*
X193965239Y-114482381D01*
X194108096Y-114530000D01*
X194441429Y-114482381D02*
X194679524Y-115482381D01*
X194870001Y-114768095D01*
X195060477Y-115482381D01*
X195298572Y-114482381D01*
X196203334Y-115482381D02*
X195631905Y-115482381D01*
X195917619Y-115482381D02*
X195917619Y-114482381D01*
X195822381Y-114625238D01*
X195727143Y-114720476D01*
X195631905Y-114768095D01*
X180848095Y-96162381D02*
X180848095Y-96971905D01*
X180895714Y-97067143D01*
X180943333Y-97114762D01*
X181038571Y-97162381D01*
X181229048Y-97162381D01*
X181324286Y-97114762D01*
X181371905Y-97067143D01*
X181419524Y-96971905D01*
X181419524Y-96162381D01*
X182419524Y-97162381D02*
X181848095Y-97162381D01*
X182133809Y-97162381D02*
X182133809Y-96162381D01*
X182038571Y-96305238D01*
X181943333Y-96400476D01*
X181848095Y-96448095D01*
X180848095Y-111422381D02*
X180848095Y-112231905D01*
X180895714Y-112327143D01*
X180943333Y-112374762D01*
X181038571Y-112422381D01*
X181229048Y-112422381D01*
X181324286Y-112374762D01*
X181371905Y-112327143D01*
X181419524Y-112231905D01*
X181419524Y-111422381D01*
X181848095Y-111517619D02*
X181895714Y-111470000D01*
X181990952Y-111422381D01*
X182229048Y-111422381D01*
X182324286Y-111470000D01*
X182371905Y-111517619D01*
X182419524Y-111612857D01*
X182419524Y-111708095D01*
X182371905Y-111850952D01*
X181800476Y-112422381D01*
X182419524Y-112422381D01*
M02*
