G04 #@! TF.FileFunction,Copper,L1,Top,Signal*
%FSLAX46Y46*%
G04 Gerber Fmt 4.6, Leading zero omitted, Abs format (unit mm)*
G04 Created by KiCad (PCBNEW 4.0.7) date 11/08/17 15:50:33*
%MOMM*%
%LPD*%
G01*
G04 APERTURE LIST*
%ADD10C,0.100000*%
%ADD11C,1.600000*%
%ADD12O,1.905000X1.117600*%
%ADD13R,1.905000X1.117600*%
%ADD14R,1.700000X1.700000*%
%ADD15O,1.700000X1.700000*%
%ADD16O,1.600000X1.600000*%
%ADD17C,2.000000*%
%ADD18R,1.800000X1.800000*%
%ADD19O,1.800000X1.800000*%
%ADD20R,1.600000X1.600000*%
G04 APERTURE END LIST*
D10*
D11*
X171450000Y-97790000D03*
X171450000Y-102790000D03*
X195580000Y-104140000D03*
X195580000Y-99140000D03*
X184150000Y-107950000D03*
X179150000Y-107950000D03*
D12*
X168910000Y-129540000D03*
D13*
X168910000Y-128270000D03*
D12*
X168910000Y-127000000D03*
X168910000Y-125730000D03*
D14*
X165100000Y-99060000D03*
D15*
X165100000Y-101600000D03*
D14*
X193040000Y-121920000D03*
D15*
X195580000Y-121920000D03*
X193040000Y-124460000D03*
X195580000Y-124460000D03*
X193040000Y-127000000D03*
X195580000Y-127000000D03*
D11*
X165100000Y-120650000D03*
D16*
X172720000Y-120650000D03*
D11*
X165100000Y-115570000D03*
D16*
X172720000Y-115570000D03*
D11*
X177800000Y-128270000D03*
D16*
X185420000Y-128270000D03*
D11*
X163830000Y-109220000D03*
D16*
X171450000Y-109220000D03*
D17*
X198120000Y-108530000D03*
X198120000Y-113030000D03*
X191620000Y-108530000D03*
X191620000Y-113030000D03*
D18*
X179070000Y-100330000D03*
D19*
X181610000Y-100330000D03*
X184150000Y-100330000D03*
D20*
X177800000Y-114300000D03*
D16*
X185420000Y-121920000D03*
X177800000Y-116840000D03*
X185420000Y-119380000D03*
X177800000Y-119380000D03*
X185420000Y-116840000D03*
X177800000Y-121920000D03*
X185420000Y-114300000D03*
M02*
